<?xml version="1.0" standalone="no"?>
<!DOCTYPE svg PUBLIC "-//W3C//DTD SVG 20010904//EN"
 "http://www.w3.org/TR/2001/REC-SVG-20010904/DTD/svg10.dtd">
<svg version="1.0" xmlns="http://www.w3.org/2000/svg"
 width="690.000000pt" height="690.000000pt" viewBox="0 0 690.000000 690.000000"
 preserveAspectRatio="xMidYMid meet">
<metadata>
Created by potrace 1.11, written by Peter Selinger 2001-2013
</metadata>
<g transform="translate(0.000000,690.000000) scale(0.100000,-0.100000)"
fill="#000000" stroke="none">
<path d="M7 6893 c-4 -3 -7 -1556 -7 -3450 l0 -3443 3450 0 3450 0 0 3450 0
3450 -3443 0 c-1894 0 -3447 -3 -3450 -7z m3838 -303 c400 -34 769 -101 1025
-186 127 -42 268 -104 293 -128 7 -6 35 -28 64 -49 71 -51 135 -127 178 -208
104 -198 184 -576 214 -1019 18 -250 42 -843 36 -867 -7 -31 -45 -30 -132 3
-37 14 -104 37 -147 50 -76 23 -84 29 -161 108 -66 68 -96 91 -165 124 -47 22
-113 48 -148 57 -138 35 -370 29 -494 -14 -79 -27 -325 -177 -375 -228 -24
-24 -43 -52 -43 -62 0 -28 101 -117 146 -130 22 -6 79 -9 134 -5 52 2 282 9
510 14 327 7 426 12 465 25 47 14 60 14 233 -12 l182 -27 0 -66 c-1 -36 -5
-148 -10 -250 -14 -286 -47 -363 -226 -525 -150 -136 -212 -169 -369 -197 -83
-14 -341 -17 -511 -4 -129 9 -144 5 -118 -32 20 -29 91 -48 231 -62 195 -20
208 -23 211 -45 5 -36 -115 -204 -222 -311 -88 -89 -113 -107 -196 -147 -174
-84 -374 -126 -466 -97 -29 9 -66 40 -141 118 l-102 106 -69 -48 c-90 -62
-130 -75 -229 -76 -147 0 -265 53 -279 127 -8 43 18 306 47 468 26 149 48 956
31 1140 -11 119 -45 258 -83 343 -56 128 -168 252 -399 444 -198 165 -297 224
-429 254 -82 19 -238 23 -268 6 -50 -27 -12 -68 88 -96 35 -10 93 -26 129 -37
83 -23 203 -103 346 -229 212 -186 206 -180 284 -332 l73 -141 -7 -256 c-4
-141 -14 -308 -22 -371 -18 -141 -61 -380 -75 -417 -18 -47 -59 -94 -118 -132
-98 -63 -129 -91 -150 -135 -44 -90 -16 -229 61 -305 61 -62 108 -67 108 -13
0 55 30 139 72 204 48 75 66 88 86 61 11 -14 13 -45 8 -143 -4 -69 -9 -139
-12 -156 -5 -28 1 -39 45 -88 29 -32 51 -66 51 -79 0 -59 -98 -148 -186 -168
-65 -15 -160 8 -337 81 -170 70 -275 136 -373 235 -80 80 -174 219 -174 257 0
23 18 26 175 32 90 3 164 13 240 30 139 33 165 43 165 67 0 24 -42 25 -267 3
-97 -9 -230 -14 -322 -12 -154 3 -158 4 -223 36 -83 41 -189 138 -257 236 -60
88 -157 285 -196 401 l-27 80 11 475 c15 635 38 887 117 1278 72 357 162 550
308 663 28 22 58 46 66 52 73 59 284 143 477 192 254 63 619 113 1013 139 113
7 506 5 605 -4z m-2466 -3355 c36 -41 62 -91 121 -230 93 -220 191 -396 360
-650 233 -349 466 -761 617 -1091 23 -50 54 -106 69 -123 24 -29 29 -31 42
-18 15 16 9 53 -32 202 -11 42 -14 214 -6 379 0 16 64 -2 225 -62 88 -33 194
-69 235 -82 97 -29 140 -53 169 -95 36 -52 50 -103 51 -178 0 -60 -6 -82 -46
-174 -71 -163 -71 -223 2 -536 19 -82 38 -178 41 -214 l6 -66 -54 6 c-139 14
-314 158 -461 377 -138 208 -192 284 -270 381 -100 123 -267 388 -578 914
-145 247 -335 627 -423 850 -60 153 -122 335 -133 389 -12 65 18 74 65 21z
m4108 -162 c-9 -109 -78 -373 -133 -511 -124 -309 -289 -595 -763 -1327 -336
-517 -481 -698 -667 -831 -118 -84 -292 -147 -315 -114 -15 23 -3 110 41 291
36 147 40 177 40 291 0 117 -2 133 -31 210 -34 92 -41 179 -21 239 7 21 40 75
72 120 33 46 60 88 60 92 0 5 -13 6 -28 2 -21 -4 -36 0 -57 17 -28 22 -39 23
-285 29 -288 7 -340 15 -550 85 -222 74 -308 135 -615 441 -266 265 -361 384
-446 560 -47 99 -96 260 -82 274 13 13 28 -11 119 -181 144 -272 169 -313 237
-386 121 -130 328 -252 572 -337 153 -53 249 -74 376 -83 58 -4 109 -13 134
-25 99 -46 445 -68 585 -37 41 10 118 22 170 28 476 55 792 225 966 521 34 57
87 147 117 199 81 138 160 253 176 258 12 4 13 -9 8 -72 -9 -100 -49 -219
-106 -311 -43 -69 -255 -331 -369 -455 -28 -30 -48 -57 -46 -59 2 -3 31 14 64
38 52 36 61 40 67 25 4 -11 -5 -39 -24 -73 -57 -107 -211 -367 -287 -486 -101
-158 -159 -276 -145 -289 14 -15 58 37 168 199 48 72 122 180 164 240 130 189
371 565 443 690 77 135 166 326 243 525 75 191 90 224 118 254 13 14 27 26 30
26 3 0 3 -35 0 -77z m-1964 -914 c98 -101 157 -173 157 -192 0 -6 -83 -8 -237
-4 -222 5 -273 10 -273 26 0 10 168 224 196 249 14 12 33 22 42 22 9 0 61 -45
115 -101z m-55 -1279 c-2 -19 -7 -34 -13 -33 -14 2 -29 67 -21 89 7 18 8 18
22 -1 8 -11 14 -35 12 -55z"/>
<path d="M4505 5443 c-214 -45 -378 -116 -525 -228 -94 -72 -207 -198 -220
-245 -16 -58 -4 -121 32 -164 53 -64 74 -56 308 123 91 69 183 138 206 153 75
48 182 98 271 124 78 24 105 27 243 28 130 0 165 -3 215 -20 77 -26 148 -72
253 -162 45 -40 85 -72 87 -72 26 0 -104 190 -172 251 -175 158 -334 220 -557
218 -67 -1 -130 -3 -141 -6z"/>
<path d="M2120 5429 c-222 -28 -435 -173 -549 -373 -52 -91 -35 -94 54 -10
171 161 238 189 460 189 168 -1 208 -9 370 -75 137 -56 216 -105 326 -203 211
-187 246 -206 316 -173 63 30 82 130 41 215 -26 56 -151 183 -233 238 -235
158 -515 227 -785 192z"/>
<path d="M4655 5193 c-54 -7 -139 -34 -205 -65 -209 -99 -558 -416 -644 -585
-36 -71 -30 -153 11 -153 7 0 89 72 181 161 195 188 321 299 450 396 75 57
107 74 170 92 192 55 260 90 246 125 -11 29 -107 43 -209 29z"/>
<path d="M2058 4480 c-160 -29 -248 -74 -364 -189 -81 -80 -94 -88 -146 -100
-32 -7 -60 -15 -62 -19 -2 -4 5 -35 15 -69 19 -61 19 -62 -1 -113 -20 -51 -27
-110 -12 -110 4 0 16 7 26 15 25 19 107 42 226 65 92 18 234 28 675 50 234 12
354 25 400 45 39 16 94 71 101 100 14 57 -36 101 -254 220 -174 95 -215 106
-402 110 -85 2 -176 0 -202 -5z"/>
<path d="M3884 3135 c-26 -39 -15 -56 56 -84 77 -31 113 -76 150 -190 12 -39
26 -71 31 -71 20 0 41 63 35 104 -15 96 -66 163 -180 240 -48 32 -71 33 -92 1z"/>
</g>
</svg>
